:version 1.10
:name ASF
:units
  mass 1
  length 1
  angle deg
:documentation
  ASF file generated by Kaydara
:root
  axis xyz
  order  tx ty tz rx ry rz
  position 0 0 0
  orientation 0 0 0
:bonedata
  begin
    id 1
    name LeftUpLegDummy
    direction 1 -2.30186e-007 -8.31532e-007
    length 2.93387
    axis 0 0 0 xyz
  end
  begin
    id 2
    name LeftUpLeg
    direction -1.82929e-007 -1 -1.48925e-009
    length 17.3336
    axis -3.48766 0.00143442 -0.000521554 xyz
    dof rx ry rz
  end
  begin
    id 3
    name LeftLeg
    direction -1.82929e-007 -1 -5.23717e-011
    length 14.9995
    axis 3.68178 -0.00654042 -0.000282425 xyz
    dof rx ry rz
  end
  begin
    id 4
    name LeftFoot
    direction 8.31532e-007 -4.54534e-011 1
    length 6.74421
    axis 1.87234e-006 4.66016e-005 -5.96866e-006 xyz
    dof rx ry rz
  end
  begin
    id 5
    name LeftToes
    direction 0.00818058 -0.00485161 0.999955
    length 3.85048
    axis 1.06247e-005 4.65869e-005 -5.96999e-006 xyz
    dof rx ry rz
  end
  begin
    id 6
    name SpineDummy
    direction -5.8607e-008 0.943407 -0.331637
    length 5.93572
    axis 0 0 0 xyz
  end
  begin
    id 7
    name Spine
    direction -1.04988e-007 0.999988 0.00495137
    length 10.1015
    axis -0.001389 0.000121417 6.61666e-006 xyz
    dof rx ry rz
  end
  begin
    id 8
    name Spine1
    direction 0 0 0
    length 0
    axis -0.001389 0.00012144 6.56766e-006 xyz
    dof rx ry rz
  end
  begin
    id 9
    name RightShoulderDummy
    direction -0.98348 0.17941 -0.0240696
    length 3.59882
    axis -0.001389 0.00012144 6.56766e-006 xyz
  end
  begin
    id 10
    name RightShoulder
    direction -0.978693 0.204882 0.0135597
    length 2.70001
    axis 0.215806 0.000203631 -0.00679732 xyz
    dof rx ry rz
  end
  begin
    id 11
    name RightArm
    direction -1 3.85509e-006 8.31394e-007
    length 10.2459
    axis -23.2009 -0.134239 -0.964098 xyz
    dof rx ry rz
  end
  begin
    id 12
    name RightForeArm
    direction -1 3.85569e-006 8.3129e-007
    length 8.16799
    axis -9.92322 0.0658061 0.17887 xyz
    dof rx ry rz
  end
  begin
    id 13
    name RightHand
    direction -0.992843 -0.0414604 0.112003
    length 5.28593
    axis -0.00960638 0.00330669 -0.185225 xyz
    dof rx ry rz
  end
  begin
    id 14
    name LeftShoulder1Dummy
    direction 0.983523 0.179172 -0.0240748
    length 3.59866
    axis -0.001389 0.00012144 6.56766e-006 xyz
  end
  begin
    id 15
    name LeftShoulder1
    direction 0.978627 0.205195 0.0135605
    length 2.70019
    axis -0.001389 0.00012144 6.57583e-006 xyz
    dof rx ry rz
  end
  begin
    id 16
    name LeftArm
    direction 1 3.51895e-006 -8.60188e-007
    length 10.2459
    axis -23.1894 0.134785 0.967513 xyz
    dof rx ry rz
  end
  begin
    id 17
    name LeftForeArm
    direction 1 3.51921e-006 -7.32029e-007
    length 8.16799
    axis -9.91835 -0.0656957 -0.177789 xyz
    dof rx ry rz
  end
  begin
    id 18
    name LeftHand
    direction 0.992938 -0.0411636 0.11126
    length 5.32135
    axis -0.00960237 -0.00340661 0.185177 xyz
    dof rx ry rz
  end
  begin
    id 19
    name HEadDummy
    direction 1.01974e-006 0.999861 -0.016675
    length 2.99946
    axis -0.001389 0.00012144 6.56766e-006 xyz
  end
  begin
    id 20
    name HEad
    direction -0.0222689 0.980941 0.193023
    length 5.12695
    axis -0.001389 0.00012144 6.56766e-006 xyz
    dof rx ry rz
  end
  begin
    id 21
    name RightUpLegDummy
    direction -1 2.30186e-007 8.31532e-007
    length 2.93387
    axis 0 0 0 xyz
  end
  begin
    id 22
    name RightUpLeg
    direction -1.82966e-007 -1 1.56832e-007
    length 17.3336
    axis -3.4909 -0.000906625 0.00028951 xyz
    dof rx ry rz
  end
  begin
    id 23
    name RightLeg
    direction -1.82786e-007 -1 -1.80317e-007
    length 14.9995
    axis 3.68513 0.0193739 -0.131021 xyz
    dof rx ry rz
  end
  begin
    id 24
    name RightFoot
    direction 8.31721e-007 -4.63324e-011 1
    length 6.74421
    axis 4.81691e-005 -0.120479 -0.188785 xyz
    dof rx ry rz
  end
  begin
    id 25
    name RightToes
    direction 0.00124746 -0.014064 0.9999
    length 3.85082
    axis 0.000481921 0.542163 -0.142575 xyz
    dof rx ry rz
  end
:hierarchy
  begin
    root LeftUpLegDummy SpineDummy RightUpLegDummy
    LeftUpLegDummy LeftUpLeg
    LeftUpLeg LeftLeg
    LeftLeg LeftFoot
    LeftFoot LeftToes
    SpineDummy Spine
    Spine Spine1
    Spine1 RightShoulderDummy LeftShoulder1Dummy HEadDummy
    RightShoulderDummy RightShoulder
    RightShoulder RightArm
    RightArm RightForeArm
    RightForeArm RightHand
    LeftShoulder1Dummy LeftShoulder1
    LeftShoulder1 LeftArm
    LeftArm LeftForeArm
    LeftForeArm LeftHand
    HEadDummy HEad
    RightUpLegDummy RightUpLeg
    RightUpLeg RightLeg
    RightLeg RightFoot
    RightFoot RightToes
  end

:SAMPLES-PER-SECOND 30
:FULLY-SPECIFIED
:DEGREES
400
root  1.0896 34.1648 -12.9823 -172.56 35.4914 -179.721
LeftUpLeg  -14.175 4.08404 0.102802
LeftLeg  16.398 -7.3145 -1.64753
LeftFoot  -1.11691 0.00287663 0.271519
LeftToes  -11.9046 7.65994e-007 1.12379e-007
Spine  6.09371 4.8652 -0.539223
Spine1  11.8536 10.4397 -1.43218
RightShoulder  0.0877849 2.17545 -10.4543
RightArm  20.5267 27.2239 99.4475
RightForeArm  122.981 64.911 157.516
RightHand  0.456603 -15.5396 -2.97423
LeftShoulder1  0.00664404 -1.73666 -7.93433
LeftArm  -9.58118 9.99177 -65.8527
LeftForeArm  26.6683 -32.2597 -6.38451
LeftHand  0.0243962 1.0078 2.04179
HEad  19.9059 40.7853 -1.49857
RightUpLeg  -18.1407 -7.05597 -5.16073
RightLeg  15.9138 2.70572 0.586619
RightFoot  6.67123 -0.0126127 0.501657
RightToes  -35.5917 -0.190515 -0.294034
401
root  1.52736 34.1624 -12.9539 -172.602 33.4012 -179.834
LeftUpLeg  -14.0734 3.29425 0.766015
LeftLeg  16.4922 -8.53996 -1.93586
LeftFoot  -0.943637 0.00338248 0.268562
LeftToes  -13.5333 7.65994e-007 1.12379e-007
Spine  6.12484 5.07888 -0.449772
Spine1  11.9601 10.8401 -1.20616
RightShoulder  0.0861608 2.17163 -10.6543
RightArm  20.4638 27.1693 99.5826
RightForeArm  122.785 64.7163 157.724
RightHand  0.459745 -15.5569 -2.99345
LeftShoulder1  0.00653538 -1.74829 -8.15655
LeftArm  -9.49152 10.4453 -65.9139
LeftForeArm  26.8111 -32.1462 -6.35629
LeftHand  0.0259232 1.02161 2.04227
HEad  19.7119 40.8841 -1.43519
RightUpLeg  -17.8609 -7.24403 -5.34146
RightLeg  15.5669 3.79763 0.799084
RightFoot  6.68976 -0.0204335 0.627315
RightToes  -36.0183 -0.18918 -0.292933
402
root  2.00207 34.1607 -12.9295 -172.61 31.2607 -179.858
LeftUpLeg  -14.0857 2.26959 1.55349
LeftLeg  16.8355 -9.51366 -2.21394
LeftFoot  -0.863894 0.00283243 0.267867
LeftToes  -14.8546 7.65994e-007 1.12379e-007
Spine  6.14796 5.32155 -0.28953
Spine1  12.0732 11.2734 -0.808404
RightShoulder  0.0823329 1.90195 -10.7802
RightArm  20.5234 27.0991 99.7203
RightForeArm  122.952 64.4556 157.995
RightHand  0.474398 -15.52 -3.10891
LeftShoulder1  0.0063743 -2.05002 -8.30471
LeftArm  -9.70307 11.0306 -66.1822
LeftForeArm  26.9862 -32.0065 -6.32164
LeftHand  0.0274384 1.01973 2.05496
HEad  19.5545 40.657 -1.41859
RightUpLeg  -17.1918 -7.46071 -5.41303
RightLeg  15.4064 5.04591 1.04642
RightFoot  6.18228 -0.0263226 0.719896
RightToes  -36.2004 -0.188864 -0.292668
403
root  2.52841 34.1635 -12.9128 -172.554 29.0294 -179.695
LeftUpLeg  -13.9572 0.923556 2.59553
LeftLeg  16.919 -10.2263 -2.39336
LeftFoot  -0.776369 0.00174365 0.257347
LeftToes  -16.14 7.65994e-007 1.12379e-007
Spine  6.05168 5.15112 -0.240688
Spine1  11.9013 10.9057 -0.705148
RightShoulder  0.0769181 2.67745 -10.6929
RightArm  20.5538 26.8281 100.159
RightForeArm  123.181 64.4882 157.96
RightHand  0.43654 -15.4394 -2.84835
LeftShoulder1  0.00612755 -0.808391 -8.36533
LeftArm  -9.26929 11.8802 -66.1159
LeftForeArm  26.8356 -32.7659 -6.51109
LeftHand  0.0275806 1.10668 1.90802
HEad  19.739 41.6774 -0.817772
RightUpLeg  -16.2769 -8.64274 -4.79283
RightLeg  15.4474 5.317 1.10643
RightFoot  5.16255 -0.0214194 0.641075
RightToes  -36.3412 -0.189935 -0.293535
404
root  3.07135 34.1743 -12.8865 -172.527 26.8636 -179.716
LeftUpLeg  -13.7698 -0.695932 3.53516
LeftLeg  16.6084 -10.6427 -2.42915
LeftFoot  -0.429884 0.000715267 0.190653
LeftToes  -17.6996 7.65994e-007 1.12379e-007
Spine  5.98426 5.25678 -0.114788
Spine1  11.8161 11.0657 -0.389087
RightShoulder  0.0723256 2.58485 -10.6204
RightArm  20.768 26.6315 100.298
RightForeArm  123.475 64.3393 158.111
RightHand  0.427799 -15.3625 -2.79993
LeftShoulder1  0.00580188 -0.788379 -8.42456
LeftArm  -9.3237 12.6922 -66.3464
LeftForeArm  26.8005 -32.8683 -6.53689
LeftHand  0.0288355 1.14173 1.94816
HEad  19.9616 41.646 -0.609312
RightUpLeg  -15.2347 -9.99474 -3.91622
RightLeg  14.8701 4.35619 0.861455
RightFoot  4.10382 -0.00992389 0.455212
RightToes  -34.3582 -0.175054 -0.281086
405
root  3.63005 34.2012 -12.8352 -172.223 24.6789 -179.238
LeftUpLeg  -13.6408 -2.32049 4.98737
LeftLeg  16.0816 -11.0176 -2.40787
LeftFoot  0.00173127 -1.45907e-006 0.0967397
LeftToes  -19.3693 7.65994e-007 1.12379e-007
Spine  5.85178 5.26988 0.127635
Spine1  11.6205 11.0126 0.166541
RightShoulder  0.0652455 2.62822 -10.5234
RightArm  20.7635 26.3312 100.261
RightForeArm  123.824 64.0039 158.447
RightHand  0.425302 -15.411 -2.7714
LeftShoulder1  0.00540407 -0.591675 -8.38608
LeftArm  -9.76313 13.7015 -66.8175
LeftForeArm  27.0805 -33.2236 -6.62681
LeftHand  0.0297708 1.07316 1.93485
HEad  20.1852 41.7219 -0.368549
RightUpLeg  -13.7349 -9.95362 -2.64101
RightLeg  12.9894 2.18734 0.359371
RightFoot  3.83996 0.00158176 0.263648
RightToes  -32.9569 -0.164804 -0.271983
406
root  4.15096 34.2242 -12.7923 -172.037 22.6283 -179.161
LeftUpLeg  -13.4364 -3.74828 6.01269
LeftLeg  15.1073 -11.4536 -2.29987
LeftFoot  0.621955 0.000224863 -0.0414385
LeftToes  -20.6349 7.65994e-007 1.12379e-007
Spine  5.74632 5.29634 0.259512
Spine1  11.4534 10.9991 0.499895
RightShoulder  0.0589383 2.42472 -10.6334
RightArm  21.0098 26.1708 100.344
RightForeArm  124.066 63.6177 158.825
RightHand  0.460169 -15.4233 -3.02603
LeftShoulder1  0.00494088 -0.473757 -8.41738
LeftArm  -10.0057 14.6389 -67.1891
LeftForeArm  26.8599 -33.5949 -6.72173
LeftHand  0.030298 1.09524 1.92953
HEad  20.0531 41.5439 -0.526899
RightUpLeg  -12.9244 -10.9553 -1.7391
RightLeg  12.2274 1.33281 0.201346
RightFoot  3.35347 0.00582744 0.178439
RightToes  -32.1844 -0.159249 -0.266858
407
root  4.64195 34.2371 -12.7531 -171.961 20.8239 -179.238
LeftUpLeg  -13.1512 -4.62484 6.82691
LeftLeg  14.0056 -12.206 -2.20718
LeftFoot  1.37344 0.0026591 -0.221859
LeftToes  -22.1288 7.65994e-007 1.12379e-007
Spine  5.66397 5.30513 0.331848
Spine1  11.3144 10.971 0.691691
RightShoulder  0.0540393 2.44177 -10.6446
RightArm  21.1301 26.1658 100.162
RightForeArm  124.232 63.3639 159.066
RightHand  0.477395 -15.3612 -3.16748
LeftShoulder1  0.00441909 -0.258279 -8.449
LeftArm  -10.5691 15.644 -67.6906
LeftForeArm  26.8196 -34.0728 -6.84507
LeftHand  0.0313102 1.06576 2.02687
HEad  19.9907 41.3525 -0.852296
RightUpLeg  -12.6531 -12.587 -0.967349
RightLeg  12.4886 1.29494 0.201655
RightFoot  2.47308 0.00498481 0.146568
RightToes  -31.0773 -0.15141 -0.259384
408
root  5.10402 34.2408 -12.7045 -171.932 19.31 -179.328
LeftUpLeg  -12.9657 -4.99578 7.54252
LeftLeg  13.1885 -13.1033 -2.17569
LeftFoot  2.02778 0.00712598 -0.402661
LeftToes  -23.5235 7.65994e-007 1.12379e-007
Spine  5.58779 5.33721 0.397563
Spine1  11.1819 11.0045 0.854229
RightShoulder  0.0508317 2.43188 -10.5701
RightArm  21.0566 26.183 99.8519
RightForeArm  124.47 63.1331 159.282
RightHand  0.492595 -15.3535 -3.28188
LeftShoulder1  0.00384547 -0.0546952 -8.45235
LeftArm  -11.316 16.7013 -68.3395
LeftForeArm  26.6971 -34.4916 -6.95439
LeftHand  0.0305136 1.0381 1.89189
HEad  20.0392 40.916 -1.10995
RightUpLeg  -12.4927 -13.6311 -0.23244
RightLeg  12.8392 0.903696 0.146666
RightFoot  1.56499 0.00389047 0.10865
RightToes  -29.3726 -0.139625 -0.247582
409
root  5.5318 34.2454 -12.658 -171.952 18.0765 -179.346
LeftUpLeg  -12.9017 -5.04589 8.20185
LeftLeg  12.8374 -13.7407 -2.19381
LeftFoot  2.53942 0.012352 -0.557299
LeftToes  -24.6025 7.65994e-007 1.12379e-007
Spine  5.54873 5.35164 0.481007
Spine1  11.1246 10.999 1.0525
RightShoulder  0.047572 2.34908 -10.5246
RightArm  20.8593 26.161 99.6564
RightForeArm  124.552 62.927 159.472
RightHand  0.500615 -15.2888 -3.35719
LeftShoulder1  0.00322678 0.0874866 -8.40286
LeftArm  -12.1932 17.7429 -69.1282
LeftForeArm  26.4682 -34.7436 -7.02075
LeftHand  0.0294296 0.983687 1.7488
HEad  19.8356 40.421 -1.46207
RightUpLeg  -12.1946 -14.0625 0.466095
RightLeg  12.8904 0.191436 0.0320475
RightFoot  0.917276 0.00238374 0.0797021
RightToes  -27.9745 -0.130225 -0.237645
410
root  5.91635 34.2428 -12.6222 -172.039 17.1377 -179.359
LeftUpLeg  -12.9317 -4.4577 8.52998
LeftLeg  12.974 -13.0246 -2.11325
LeftFoot  2.85082 0.0151537 -0.601009
LeftToes  -25.1574 7.65994e-007 1.12379e-007
Spine  5.52747 5.35261 0.566057
Spine1  11.1011 10.9661 1.25282
RightShoulder  0.0444067 2.28195 -10.4814
RightArm  20.5469 26.0194 99.4501
RightForeArm  124.895 62.6736 159.7
RightHand  0.484845 -15.3006 -3.23703
LeftShoulder1  0.00256981 0.2182 -8.41231
LeftArm  -12.7091 18.7488 -69.8295
LeftForeArm  25.869 -34.9017 -7.06271
LeftHand  0.028294 1.14186 1.74005
HEad  19.87 39.6967 -1.59282
RightUpLeg  -11.9555 -14.7436 1.10069
RightLeg  13.0896 -0.0159917 -0.00166253
RightFoot  0.244127 0.000454135 0.0703458
RightToes  -26.5856 -0.12113 -0.227549
411
root  6.25686 34.2347 -12.602 -172.179 16.4443 -179.459
LeftUpLeg  -13.0427 -2.80102 8.35276
LeftLeg  13.4641 -11.3957 -1.95261
LeftFoot  3.08721 0.0153127 -0.568246
LeftToes  -25.4084 7.65994e-007 1.12379e-007
Spine  5.49603 5.31024 0.622496
Spine1  11.0491 10.8514 1.38896
RightShoulder  0.0412155 2.19999 -10.415
RightArm  20.3635 25.7593 99.221
RightForeArm  125.237 62.3434 159.992
RightHand  0.512352 -15.2018 -3.46656
LeftShoulder1  0.0018813 0.343438 -8.39357
LeftArm  -12.9197 19.6707 -70.4585
LeftForeArm  25.2739 -34.8006 -7.0361
LeftHand  0.0263466 1.34506 1.69953
HEad  20.1407 38.7784 -1.6577
RightUpLeg  -11.7696 -15.2977 1.55007
RightLeg  13.3868 -0.0804556 -0.0128266
RightFoot  -0.438745 -0.00119372 0.0658839
RightToes  -25.4233 -0.113709 -0.218933
412
root  6.55742 34.2265 -12.5912 -172.302 15.9322 -179.554
LeftUpLeg  -13.2199 -0.696996 7.9332
LeftLeg  14.1233 -9.15299 -1.68072
LeftFoot  3.15438 0.0126132 -0.458099
LeftToes  -24.8306 7.65994e-007 1.12379e-007
Spine  5.43042 5.22086 0.691236
Spine1  10.9265 10.6427 1.54291
RightShoulder  0.0387789 2.03208 -10.3146
RightArm  20.2606 25.3393 99.0016
RightForeArm  125.522 61.9137 160.362
RightHand  0.548808 -15.2998 -3.71271
LeftShoulder1  0.00116805 0.452432 -8.34394
LeftArm  -12.9146 20.5417 -71.0227
LeftForeArm  25.0855 -34.5097 -6.95953
LeftHand  0.0221195 1.50969 1.30278
HEad  20.3573 37.8953 -1.74856
RightUpLeg  -11.5066 -15.3805 1.92198
RightLeg  13.4267 -0.434753 -0.073713
RightFoot  -0.990507 -0.00281249 0.0675472
RightToes  -24.2296 -0.10627 -0.209929
413
root  6.82271 34.2218 -12.5804 -172.365 15.5411 -179.618
LeftUpLeg  -13.3764 0.951077 7.51809
LeftLeg  14.593 -6.53741 -1.25899
LeftFoot  3.24984 0.0092161 -0.324888
LeftToes  -24.289 7.65994e-007 1.12379e-007
Spine  5.33806 5.06823 0.762947
Spine1  10.7461 10.3109 1.69149
RightShoulder  0.0373245 1.9152 -10.2382
RightArm  20.0615 24.832 98.7914
RightForeArm  125.857 61.5326 160.68
RightHand  0.556096 -15.3294 -3.75882
LeftShoulder1  0.00043681 0.557793 -8.27946
LeftArm  -12.7597 21.3213 -71.4567
LeftForeArm  25.2753 -34.1698 -6.87069
LeftHand  0.0156179 1.59043 0.751958
HEad  20.6459 36.906 -1.7097
RightUpLeg  -11.2088 -15.2705 2.28241
RightLeg  13.2219 -0.911613 -0.152166
RightFoot  -1.33974 -0.00465549 0.0764757
RightToes  -23.1804 -0.0998887 -0.201889
